<?xml version="1.0" standalone="no"?><!DOCTYPE svg PUBLIC "-//W3C//DTD SVG 1.1//EN" "http://www.w3.org/Graphics/SVG/1.1/DTD/svg11.dtd"><svg t="1615990277895" class="icon" viewBox="0 0 1024 1024" version="1.1" xmlns="http://www.w3.org/2000/svg" p-id="1922" xmlns:xlink="http://www.w3.org/1999/xlink" width="200" height="200"><defs><style type="text/css"></style></defs><path d="M931.84 289.28c-12.8-5.12-25.6-5.12-35.84-5.12H430.08c-17.92 0-40.96-2.56-58.88 2.56-23.04 5.12-38.4 25.6-38.4 48.64 0 28.16 23.04 51.2 51.2 51.2h463.36l-40.96 215.04c-5.12 23.04-25.6 40.96-51.2 40.96h-384c-23.04 0-46.08-17.92-51.2-40.96L238.08 222.72c-10.24-46.08-51.2-81.92-99.84-81.92H102.4c-28.16 0-51.2 23.04-51.2 51.2s23.04 51.2 51.2 51.2h35.84l81.92 378.88c15.36 71.68 76.8 120.32 151.04 120.32h384c61.44 0 125.44-40.96 143.36-99.84 12.8-40.96 20.48-87.04 28.16-128 7.68-43.52 17.92-87.04 25.6-128 2.56-7.68 5.12-17.92 5.12-25.6 2.56-7.68 2.56-17.92 2.56-25.6 0-20.48-10.24-40.96-28.16-46.08z" p-id="1923"></path><path d="M332.8 844.8m-76.8 0a76.8 76.8 0 1 0 153.6 0 76.8 76.8 0 1 0-153.6 0Z" p-id="1924"></path><path d="M793.6 844.8m-76.8 0a76.8 76.8 0 1 0 153.6 0 76.8 76.8 0 1 0-153.6 0Z" p-id="1925"></path></svg>