<?xml version="1.0" standalone="no"?><!DOCTYPE svg PUBLIC "-//W3C//DTD SVG 1.1//EN" "http://www.w3.org/Graphics/SVG/1.1/DTD/svg11.dtd"><svg t="1615990370841" class="icon" viewBox="0 0 1024 1024" version="1.1" xmlns="http://www.w3.org/2000/svg" p-id="826" xmlns:xlink="http://www.w3.org/1999/xlink" width="200" height="200"><defs><style type="text/css"></style></defs><path d="M482 197v225c0 33.14-26.86 60-60 60H197c-33.14 0-60-26.86-60-60V197c0-33.14 26.86-60 60-60h225c33.14 0 60 26.86 60 60zM887 197v225c0 33.14-26.86 60-60 60H602c-33.14 0-60-26.86-60-60V197c0-33.14 26.86-60 60-60h225c33.14 0 60 26.86 60 60zM482 602v225c0 33.14-26.86 60-60 60H197c-33.14 0-60-26.86-60-60V602c0-33.14 26.86-60 60-60h225c33.14 0 60 26.86 60 60zM887 602v225c0 33.14-26.86 60-60 60H602c-33.14 0-60-26.86-60-60V602c0-33.14 26.86-60 60-60h225c33.14 0 60 26.86 60 60z" p-id="827"></path></svg>